<?xml version="1.0" standalone="no"?>
<!DOCTYPE svg PUBLIC "-//W3C//DTD SVG 20010904//EN"
 "http://www.w3.org/TR/2001/REC-SVG-20010904/DTD/svg10.dtd">
<svg version="1.0" xmlns="http://www.w3.org/2000/svg"
 width="300.000000pt" height="300.000000pt" viewBox="0 0 300.000000 300.000000"
 preserveAspectRatio="xMidYMid meet">
<metadata>
Created by potrace 1.11, written by Peter Selinger 2001-2013
</metadata>
<g transform="translate(0.000000,300.000000) scale(0.100000,-0.100000)"
fill="#000000" stroke="none">
<path d="M2248 2984 c-3 -2 -18 -6 -34 -8 -16 -2 -47 -9 -70 -16 l-41 -12
-181 -363 c-99 -200 -184 -365 -189 -368 -4 -3 -33 7 -63 20 -146 66 -306 133
-319 133 -6 0 -11 4 -11 9 0 5 -10 11 -22 14 -13 2 -40 12 -60 21 l-37 16
-326 -545 c-180 -300 -328 -553 -329 -562 -2 -10 0 -27 5 -39 4 -11 9 -34 12
-50 8 -47 87 -457 94 -484 3 -14 8 -34 9 -45 4 -23 16 -85 20 -100 1 -5 5 -30
9 -55 4 -24 9 -48 11 -52 3 -5 -7 -19 -23 -33 -17 -16 -21 -23 -10 -19 12 4
17 2 15 -7 -2 -8 4 -13 14 -13 10 1 16 -2 13 -6 -3 -5 -1 -11 5 -15 6 -4 8
-10 5 -15 -3 -4 -2 -15 1 -24 5 -13 9 -14 20 -5 9 8 14 8 14 1 0 -6 9 -9 19
-7 15 3 18 0 14 -13 -5 -12 1 -11 25 7 18 12 32 18 32 13 0 -5 -11 -14 -25
-20 -14 -6 -25 -17 -25 -23 0 -7 10 -5 26 6 14 9 28 14 31 11 4 -3 12 -1 20 5
8 7 18 8 26 2 14 -11 27 -11 44 0 9 5 17 -1 24 -17 13 -28 32 -26 23 2 -5 14
-4 15 5 2 7 -11 5 -20 -7 -34 -16 -18 -16 -18 6 -7 12 7 28 9 34 5 7 -5 9 -2
6 8 -4 8 -2 21 4 29 8 11 9 11 5 -3 -9 -26 6 -31 20 -6 7 13 12 17 13 11 0 -7
-9 -22 -20 -33 -10 -10 -15 -22 -10 -25 5 -3 16 5 24 17 9 12 16 17 16 10 0
-6 7 -12 16 -12 11 0 14 -6 10 -18 -6 -16 -5 -16 8 1 10 14 15 15 19 5 4 -9 6
-7 6 4 1 9 6 20 13 24 8 5 9 2 4 -12 -4 -10 -9 -24 -10 -31 -1 -7 -6 -16 -11
-20 -4 -4 -5 -2 0 6 6 10 4 12 -5 6 -9 -6 -11 -4 -5 5 5 9 4 11 -4 6 -6 -4 -8
-13 -4 -19 4 -7 -2 -5 -12 3 -15 12 -17 12 -10 1 5 -10 4 -12 -4 -7 -9 6 -9
11 0 22 16 20 0 17 -24 -4 -11 -9 -18 -12 -14 -6 3 6 0 11 -8 11 -8 0 -12 -3
-10 -7 2 -4 -2 -7 -10 -7 -8 0 -11 5 -8 10 4 6 1 7 -8 2 -12 -8 -12 -6 0 8 9
11 10 17 2 17 -6 0 -11 -5 -11 -12 0 -6 -3 -8 -6 -5 -4 3 -14 2 -24 -3 -15 -8
-17 -5 -14 22 3 26 2 29 -11 18 -11 -9 -12 -16 -5 -25 8 -10 8 -15 -1 -21 -8
-5 -10 -3 -4 7 5 8 4 11 0 6 -5 -4 -10 -18 -12 -30 -2 -20 -2 -21 11 -5 7 10
16 15 20 11 3 -3 -2 -15 -11 -25 -16 -18 -16 -18 0 -12 9 3 17 10 17 16 0 5 6
6 13 2 8 -5 8 -2 -2 9 -8 10 -9 17 -3 17 6 0 15 -8 21 -17 7 -14 12 -15 24 -5
9 8 18 9 21 3 4 -5 -3 -13 -15 -16 -11 -4 -18 -9 -15 -12 3 -3 17 2 31 11 26
17 34 10 13 -14 -11 -12 -10 -12 3 -2 12 9 19 9 29 -1 8 -7 6 0 -3 16 -10 15
-13 27 -8 27 6 0 15 -8 20 -17 7 -12 10 -14 11 -4 0 11 3 11 16 0 10 -8 18 -9
22 -2 4 5 15 9 25 7 9 -1 17 2 17 7 0 6 5 7 10 4 6 -4 8 -10 6 -14 -3 -4 -1
-13 4 -21 5 -9 4 -20 -3 -30 -10 -13 -10 -13 5 -2 9 8 23 10 30 6 7 -4 3 3
-10 16 -13 12 -21 25 -17 28 3 4 10 0 14 -7 6 -9 11 -10 15 -2 10 16 26 4 27
-22 1 -18 2 -18 6 -4 3 10 -1 24 -7 32 -6 8 -8 20 -4 26 5 8 3 9 -6 4 -9 -6
-11 -4 -5 5 5 9 4 11 -3 6 -8 -5 -10 -1 -5 9 5 14 8 14 15 3 7 -9 8 -7 5 9 -3
14 0 21 7 20 6 -1 10 3 9 10 -2 7 4 10 12 7 13 -5 13 -8 0 -21 -8 -8 -15 -17
-16 -21 0 -4 -2 -14 -4 -23 -4 -20 21 -54 30 -40 3 6 1 11 -6 11 -7 0 -10 2
-7 5 3 3 13 3 22 -1 14 -5 14 -9 4 -22 -12 -14 -11 -14 10 -1 12 8 22 18 22
23 0 4 7 3 16 -5 13 -10 17 -10 24 0 5 9 10 9 14 3 3 -6 -6 -20 -20 -31 -15
-12 -22 -21 -16 -21 6 0 14 5 17 10 4 6 11 8 16 4 5 -3 8 0 7 8 -2 7 3 12 10
10 8 -1 11 2 8 7 -4 5 0 11 6 14 10 3 10 8 -1 18 -12 12 -13 12 -6 -1 7 -12 6
-13 -6 -4 -8 6 -21 10 -29 9 -23 -4 -22 29 1 43 11 7 19 8 19 2 0 -5 -5 -10
-11 -10 -5 0 -7 -5 -3 -12 5 -8 14 -4 27 13 13 15 18 17 14 7 -9 -25 7 -30 23
-8 13 19 14 19 28 -1 7 -10 18 -17 23 -13 6 3 3 12 -8 19 -14 10 -15 16 -6 25
14 15 34 5 27 -13 -3 -8 4 -13 16 -13 12 0 19 5 16 12 -3 7 6 20 20 28 22 15
28 13 26 -6 -1 -3 6 -12 15 -19 14 -12 15 -11 9 11 -8 24 -7 24 7 5 16 -23 19
-57 4 -48 -6 3 -7 1 -3 -5 5 -9 13 -9 27 -2 10 6 19 13 19 16 0 3 -4 3 -9 0
-20 -13 -3 25 17 40 15 10 22 11 20 3 -2 -6 3 -14 10 -16 7 -3 10 1 7 10 -3 7
2 20 12 28 16 12 17 12 7 -1 -13 -17 -15 -50 -2 -50 4 0 8 9 8 20 0 11 4 20
10 20 5 0 7 -6 4 -13 -3 -8 3 -13 16 -13 11 0 20 4 20 8 0 4 -5 8 -11 8 -8 0
-8 4 0 14 6 8 10 19 9 26 -2 7 3 14 10 15 7 2 8 1 3 -1 -6 -3 -7 -12 -4 -20 5
-13 8 -13 15 -2 8 10 9 9 4 -4 -3 -10 -1 -20 4 -23 6 -4 10 -1 10 4 0 6 7 11
16 11 12 0 11 5 -7 20 -13 10 -20 19 -16 20 4 0 17 -9 29 -20 25 -23 46 -27
28 -5 -12 15 -5 39 10 30 4 -3 11 2 14 11 8 21 8 20 -9 22 -8 1 -22 3 -30 4
-8 1 -12 5 -9 10 3 4 1 8 -3 8 -5 0 -13 -10 -18 -22 -6 -12 -17 -23 -25 -26
-10 -2 -11 -1 -4 5 17 12 44 70 37 77 -4 3 -1 6 6 6 7 0 11 -7 8 -15 -4 -8 -1
-17 5 -21 6 -4 8 -3 5 2 -3 6 3 10 13 11 11 1 22 -3 26 -8 4 -6 11 -6 19 1 9
8 15 8 20 0 3 -5 -1 -10 -10 -10 -9 0 -13 -5 -10 -10 4 -6 11 -7 17 -4 6 4 6
-1 -1 -14 -6 -12 -7 -23 -2 -26 12 -8 18 12 16 47 -1 15 3 26 8 24 14 -4 18
-37 4 -37 -6 0 -3 -6 6 -13 10 -6 20 -26 23 -42 5 -29 5 -29 -11 -10 -9 11
-13 13 -9 5 7 -13 5 -13 -9 -2 -14 12 -16 11 -12 -6 4 -22 -19 -37 -37 -25 -7
4 -8 1 -4 -8 4 -8 1 -6 -7 4 -9 10 -18 14 -21 8 -3 -5 -3 -11 1 -14 5 -2 2 -2
-5 0 -7 1 -11 -1 -8 -5 3 -5 -1 -9 -9 -10 -8 -1 -22 -3 -30 -4 -8 -1 -15 -6
-15 -11 0 -6 -3 -7 -7 -4 -3 4 -12 2 -20 -4 -7 -6 -13 -8 -13 -3 0 5 -5 2 -10
-6 -8 -12 -10 -12 -10 -1 0 11 -3 11 -17 0 -9 -8 -14 -9 -10 -3 4 7 1 14 -7
17 -10 4 -12 0 -9 -14 4 -13 11 -18 21 -14 8 3 22 0 30 -7 10 -8 13 -9 9 -2
-4 7 0 14 8 18 8 3 18 -2 23 -10 7 -12 11 -10 22 11 14 26 32 34 28 13 -3 -14
75 -19 94 -6 8 5 0 6 -19 3 -25 -4 -31 -2 -27 8 4 12 37 15 69 7 23 -6 26 1
11 25 -18 27 -11 32 15 12 9 -7 15 -18 13 -25 -1 -7 0 -8 3 -2 2 5 10 7 16 3
8 -4 7 -1 -1 9 -7 8 -10 22 -6 31 3 8 0 18 -6 22 -12 8 5 35 22 35 7 0 7 -5 0
-13 -6 -7 -7 -18 -2 -26 4 -8 6 -21 3 -30 -2 -9 5 1 17 22 23 41 34 46 49 20
6 -10 11 -13 11 -7 0 6 -7 18 -16 25 -14 11 -19 10 -34 -8 -10 -12 -20 -19
-24 -16 -3 4 3 16 13 27 13 14 17 26 12 35 -6 9 -11 10 -15 2 -4 -6 -2 -11 4
-11 6 0 9 -4 5 -10 -3 -5 -12 -7 -20 -4 -8 4 -13 10 -10 14 7 12 -23 33 -36
25 -8 -5 -9 -1 -4 14 4 13 2 21 -5 21 -6 0 -8 -4 -5 -10 3 -6 2 -10 -4 -10 -5
0 -13 5 -16 11 -4 6 -13 8 -20 5 -8 -3 -19 2 -25 9 -11 14 -34 14 -87 1 -16
-3 -26 3 -39 22 -10 14 -17 32 -17 39 0 7 -4 10 -8 7 -5 -2 -6 -11 -2 -19 3
-10 0 -14 -8 -12 -8 2 -10 2 -6 -1 5 -2 17 -18 28 -36 10 -17 19 -25 19 -17 0
10 3 11 13 2 8 -6 18 -7 22 -3 5 4 5 2 1 -5 -4 -7 -13 -10 -20 -7 -17 6 -41
-22 -26 -31 5 -3 10 -1 10 4 0 6 5 11 12 11 6 0 3 -8 -7 -20 -31 -34 -84 -10
-55 25 15 18 -1 20 -18 3 -9 -9 -12 -9 -12 0 0 7 5 12 10 12 18 0 10 16 -9 17
-13 1 -18 -4 -16 -20 1 -12 3 -22 5 -22 1 0 3 -13 5 -30 2 -16 1 -23 -1 -14
-3 11 -13 15 -27 13 -21 -4 -21 -4 1 6 13 5 20 15 17 21 -5 8 -10 8 -18 0 -6
-6 -16 -11 -22 -11 -5 0 -2 5 8 11 9 6 15 14 12 20 -4 5 -1 9 5 9 6 0 9 4 5 9
-3 5 3 16 13 23 11 7 20 18 21 23 1 12 54 83 423 573 152 202 277 374 277 382
0 8 -48 127 -107 263 l-107 249 -55 23 c-30 13 -54 29 -52 35 1 8 315 405 377
477 5 7 15 18 20 25 70 90 75 98 75 132 0 44 -32 131 -65 176 -31 42 -109 98
-154 110 -42 11 -137 20 -143 14z m-298 -2499 c5 -3 8 -11 4 -16 -4 -6 -11 -6
-19 1 -8 7 -18 9 -24 6 -5 -3 -11 0 -14 8 -5 14 31 15 53 1z m-1220 -29 c0
-23 -16 -27 -17 -5 -1 10 2 19 8 19 5 0 9 -6 9 -14z m1326 -28 c3 -26 -22 -43
-31 -21 -14 33 -13 40 8 39 11 -1 21 -9 23 -18z m-153 -15 c-7 -2 -13 -12 -13
-21 0 -15 -2 -15 -10 -2 -9 15 4 30 25 29 6 0 4 -3 -2 -6z m-219 -14 c-2 -4 1
-9 8 -11 7 -3 2 -7 -10 -10 -12 -4 -25 -1 -29 4 -4 7 -1 8 7 3 9 -6 12 -4 8 7
-4 8 0 15 8 15 7 0 11 -4 8 -8z m123 -5 c-3 -3 -12 -4 -19 -1 -8 3 -5 6 6 6
11 1 17 -2 13 -5z m-357 -8 c0 -2 -7 -7 -16 -10 -8 -3 -12 -2 -9 4 6 10 25 14
25 6z m95 -6 c-8 -13 7 -13 23 0 7 5 6 3 -2 -6 -14 -17 -41 -10 -31 7 4 5 8 9
11 9 3 0 2 -4 -1 -10z m55 -10 c-6 -11 -13 -20 -16 -20 -2 0 0 9 6 20 6 11 13
20 16 20 2 0 0 -9 -6 -20z m130 10 c0 -5 -2 -10 -4 -10 -3 0 -8 5 -11 10 -3 6
-1 10 4 10 6 0 11 -4 11 -10z m-521 -7 c-3 -21 2 -33 13 -27 7 4 8 3 4 -5 -4
-6 -12 -8 -18 -5 -7 5 -9 1 -5 -9 9 -24 0 -21 -14 4 -9 17 -8 20 2 14 9 -6 11
-4 6 7 -3 9 -3 19 0 22 8 8 13 8 12 -1z m136 -22 c-6 -5 -25 10 -25 20 0 5 6
4 14 -3 8 -7 12 -15 11 -17z m400 10 c-3 -6 -11 -11 -16 -11 -5 0 -4 6 3 14
14 16 24 13 13 -3z m299 -11 c-6 -6 -10 -3 -10 10 0 13 4 16 10 10 7 -7 7 -13
0 -20z m-1094 10 c0 -5 -5 -10 -11 -10 -5 0 -7 5 -4 10 3 6 8 10 11 10 2 0 4
-4 4 -10z m55 0 c3 -5 1 -10 -4 -10 -6 0 -11 5 -11 10 0 6 2 10 4 10 3 0 8 -4
11 -10z m85 -2 c0 -4 -4 -8 -9 -8 -6 0 -12 4 -15 8 -3 5 1 9 9 9 8 0 15 -4 15
-9z m90 8 c0 -2 -8 -10 -17 -17 -16 -13 -17 -12 -4 4 13 16 21 21 21 13z m221
-19 c-10 -9 -11 -8 -5 6 3 10 9 15 12 12 3 -3 0 -11 -7 -18z m111 5 c-7 -2 -9
-9 -5 -15 3 -7 2 -8 -2 -4 -16 14 -14 36 3 29 10 -4 12 -7 4 -10z m148 8 c12
-7 10 -9 -8 -7 -12 0 -22 5 -22 9 0 11 12 10 30 -2z m140 0 c0 -5 -4 -10 -10
-10 -5 0 -10 5 -10 10 0 6 5 10 10 10 6 0 10 -4 10 -10z m-750 -20 c0 -5 -4
-10 -10 -10 -5 0 -10 5 -10 10 0 6 5 10 10 10 6 0 10 -4 10 -10z m87 4 c-3 -3
-12 -4 -19 -1 -8 3 -5 6 6 6 11 1 17 -2 13 -5z m233 -4 c-8 -5 -19 -10 -25
-10 -5 0 -3 5 5 10 8 5 20 10 25 10 6 0 3 -5 -5 -10z m89 -17 c2 -2 -3 -3 -11
-3 -9 0 -19 7 -22 16 -6 15 -4 15 11 3 10 -7 20 -15 22 -16z m24 14 c3 -8 2
-20 -3 -26 -5 -9 -7 -4 -7 13 0 29 2 32 10 13z m87 3 c0 -5 -4 -10 -10 -10 -5
0 -10 5 -10 10 0 6 5 10 10 10 6 0 10 -4 10 -10z m126 -5 c-11 -8 -22 -12 -25
-9 -6 6 19 24 34 24 6 -1 1 -7 -9 -15z m-429 -27 c-3 -7 -5 -2 -5 12 0 14 2
19 5 13 2 -7 2 -19 0 -25z m743 11 c10 -19 10 -20 -9 -10 -11 6 -28 8 -38 5
-10 -3 -7 2 7 10 14 8 26 15 27 16 1 0 7 -9 13 -21z m-860 -4 c0 -8 -2 -15 -4
-15 -2 0 -6 7 -10 15 -3 8 -1 15 4 15 6 0 10 -7 10 -15z m240 0 c0 -8 -2 -15
-4 -15 -2 0 -6 7 -10 15 -3 8 -1 15 4 15 6 0 10 -7 10 -15z m544 -9 c-7 -19
-41 -27 -41 -10 0 7 3 11 7 9 3 -2 12 0 20 6 20 12 20 11 14 -5z m-697 -3 c-9
-2 -15 -8 -12 -13 3 -5 13 -6 22 -3 12 5 15 2 11 -9 -4 -9 -1 -21 5 -27 18
-18 -1 -25 -26 -8 -17 11 -28 12 -41 5 -16 -9 -17 -8 -6 14 20 37 31 48 49 47
13 -1 13 -2 -2 -6z m130 1 c-3 -3 -12 -4 -19 -1 -8 3 -5 6 6 6 11 1 17 -2 13
-5z m-40 -26 c-6 -22 -6 -22 8 -4 8 11 15 14 15 8 0 -7 5 -12 11 -12 5 0 7 5
4 10 -3 6 -1 10 4 10 6 0 12 -4 12 -10 1 -5 2 -16 3 -22 1 -7 8 -12 15 -10 7
1 9 -2 6 -9 -5 -7 -10 -8 -18 0 -7 7 -14 7 -24 0 -8 -8 -13 -8 -13 -1 0 6 -11
9 -24 8 -22 -3 -22 -1 -12 26 12 33 21 37 13 6z m533 6 c0 -8 -19 -13 -24 -6
-3 5 1 9 9 9 8 0 15 -2 15 -3z m-829 -31 c13 -16 12 -17 -3 -4 -10 7 -18 15
-18 17 0 8 8 3 21 -13z"/>
<path d="M2025 431 c-6 -11 13 -26 22 -17 4 3 1 6 -6 6 -7 0 -9 5 -6 10 3 6 4
10 1 10 -3 0 -7 -4 -11 -9z"/>
<path d="M1207 277 c-3 -9 -3 -16 1 -15 4 1 18 -4 32 -11 21 -11 23 -11 10 0
-8 8 -19 20 -25 28 -10 12 -13 11 -18 -2z"/>
<path d="M1335 260 c-2 -3 5 -6 15 -7 11 -1 22 2 24 5 3 4 -4 8 -15 8 -11 0
-22 -3 -24 -6z"/>
<path d="M1856 581 c-3 -5 2 -15 12 -22 15 -12 16 -12 5 2 -7 9 -10 19 -6 22
3 4 4 7 0 7 -3 0 -8 -4 -11 -9z"/>
<path d="M1826 538 c3 -4 9 -8 15 -8 5 0 9 4 9 8 0 5 -7 9 -15 9 -8 0 -12 -4
-9 -9z"/>
<path d="M697 533 c-10 -9 -9 -23 1 -23 5 0 9 7 9 15 0 17 -1 18 -10 8z"/>
<path d="M1860 525 c0 -8 4 -15 10 -15 5 0 7 7 4 15 -4 8 -8 15 -10 15 -2 0
-4 -7 -4 -15z"/>
<path d="M1767 522 c2 -3 -2 -11 -9 -19 -6 -8 -7 -13 -2 -11 5 2 19 -4 32 -13
19 -14 20 -18 7 -22 -22 -9 -18 -32 6 -34 16 -2 19 1 11 9 -8 8 -8 15 -1 24 7
9 2 20 -18 41 -15 16 -27 27 -26 25z m24 -29 c13 -16 12 -17 -3 -4 -17 13 -22
21 -14 21 2 0 10 -8 17 -17z"/>
<path d="M1952 514 c10 -10 20 -16 22 -13 3 3 -5 11 -17 18 -21 13 -21 12 -5
-5z"/>
<path d="M1993 515 c0 -8 4 -15 9 -15 4 0 8 4 8 9 0 6 -4 12 -8 15 -5 3 -9 -1
-9 -9z"/>
<path d="M2069 517 c6 -8 7 -18 3 -22 -4 -5 -1 -5 6 -1 10 6 10 11 1 22 -6 8
-14 14 -16 14 -3 0 0 -6 6 -13z"/>
<path d="M2030 506 c0 -2 7 -7 16 -10 8 -3 12 -2 9 4 -6 10 -25 14 -25 6z"/>
<path d="M633 472 c2 -12 6 -24 10 -28 3 -4 4 4 2 16 -6 30 -16 40 -12 12z"/>
<path d="M675 480 c3 -5 8 -10 11 -10 2 0 4 5 4 10 0 6 -5 10 -11 10 -5 0 -7
-4 -4 -10z"/>
<path d="M2091 474 c0 -11 3 -14 6 -6 3 7 2 16 -1 19 -3 4 -6 -2 -5 -13z"/>
<path d="M595 460 c3 -5 8 -10 11 -10 2 0 4 5 4 10 0 6 -5 10 -11 10 -5 0 -7
-4 -4 -10z"/>
<path d="M1905 450 c-3 -5 -1 -11 4 -11 6 -1 17 -2 24 -3 6 0 13 -11 13 -23 1
-21 -7 -28 -28 -24 -18 3 -6 -20 18 -35 21 -15 27 -15 34 -4 5 8 4 23 -3 34
-6 12 -10 25 -9 30 3 10 -27 46 -39 46 -4 0 -11 -4 -14 -10z m55 -64 c0 -2 -8
-10 -17 -17 -16 -13 -17 -12 -4 4 13 16 21 21 21 13z"/>
<path d="M593 427 c0 -8 6 -14 14 -14 9 0 10 4 2 14 -6 7 -12 13 -14 13 -1 0
-2 -6 -2 -13z"/>
<path d="M660 433 c0 -6 5 -15 12 -19 8 -5 7 -10 -4 -18 -14 -10 -14 -14 -2
-30 11 -16 16 -17 29 -6 13 11 15 10 12 -8 -4 -25 -17 -42 -17 -22 0 7 -3 11
-6 8 -9 -10 16 -49 27 -42 6 3 13 -4 16 -16 l6 -21 12 23 c8 16 9 29 2 43 -9
17 -8 18 5 8 8 -7 18 -10 21 -6 13 13 7 -13 -9 -35 -8 -12 -12 -22 -7 -21 18
3 34 -2 29 -9 -2 -4 5 -9 17 -9 20 -2 20 -1 4 8 -9 6 -15 15 -11 21 4 6 10 5
15 -3 7 -12 9 -11 10 1 0 10 3 8 8 -5 5 -12 4 -26 -2 -35 -8 -11 -6 -11 7 1
15 14 16 21 7 38 -7 11 -8 21 -4 21 17 0 29 -16 28 -39 0 -13 6 -26 13 -28 6
-3 12 0 12 7 0 6 -5 8 -11 4 -7 -4 -10 -1 -7 7 2 7 16 14 31 14 30 2 37 -11
10 -18 -15 -4 -16 -5 -2 -6 20 -1 53 45 39 54 -5 3 -20 0 -32 -6 -13 -7 -25
-11 -28 -10 -17 9 -29 25 -24 33 3 5 15 1 26 -9 20 -18 21 -18 14 7 -6 19 -5
21 3 10 6 -8 11 -11 11 -7 0 4 8 3 18 -2 13 -7 23 -6 30 1 16 16 15 33 0 20
-21 -17 -24 -17 -41 -3 -13 10 -20 11 -30 2 -8 -6 -16 -8 -20 -5 -3 3 -17 -2
-30 -11 -25 -16 -26 -15 -39 7 -7 14 -23 25 -35 25 -40 1 -44 3 -38 12 3 5 0
13 -6 17 -8 5 -8 9 1 14 9 6 3 13 -19 24 -17 9 -31 13 -31 9 0 -5 -5 -1 -10 7
-6 9 -10 10 -10 3z m56 -40 c-3 -4 0 -13 7 -22 10 -14 10 -14 -4 -4 -11 9 -19
9 -26 2 -15 -15 -28 8 -14 25 6 7 7 16 3 21 -4 4 4 2 16 -4 13 -7 21 -15 18
-18z m15 -55 c1 -7 1 -16 0 -20 0 -5 4 -8 10 -8 5 0 7 -5 4 -10 -5 -8 -11 -8
-19 -1 -7 6 -16 8 -19 4 -4 -3 -7 -1 -7 5 0 6 5 14 10 17 6 4 8 11 5 16 -4 5
-1 9 4 9 6 0 12 -6 12 -12z m79 -32 c8 -11 10 -17 3 -13 -6 4 -14 3 -18 -3 -3
-5 -12 -10 -18 -10 -8 0 -8 3 1 9 8 4 13 11 13 15 -2 14 -1 29 2 25 1 -2 9
-13 17 -23z"/>
<path d="M2173 425 c0 -8 4 -12 9 -9 5 3 6 10 3 15 -9 13 -12 11 -12 -6z"/>
<path d="M635 421 c-6 -11 13 -26 22 -17 4 3 1 6 -6 6 -7 0 -9 5 -6 10 3 6 4
10 1 10 -3 0 -7 -4 -11 -9z"/>
<path d="M1990 397 c0 -8 6 -14 14 -14 8 0 12 6 9 14 -3 7 -9 13 -14 13 -5 0
-9 -6 -9 -13z"/>
<path d="M624 382 c4 -7 2 -20 -6 -30 -12 -16 -11 -16 7 -2 11 8 21 15 23 16
1 1 -5 7 -15 15 -12 10 -15 10 -9 1z"/>
<path d="M647 344 c7 -3 9 -13 6 -22 -4 -14 -3 -14 5 -2 12 16 7 30 -11 29 -9
0 -9 -2 0 -5z"/>
<path d="M1822 330 c2 -19 -1 -24 -14 -22 -10 2 -18 -1 -18 -7 0 -11 18 -9 45
6 19 11 19 13 2 30 -17 17 -18 17 -15 -7z"/>
<path d="M1874 336 c-10 -8 -16 -18 -11 -22 4 -4 7 -2 7 5 0 7 4 10 9 6 5 -3
13 0 16 6 11 17 0 20 -21 5z"/>
<path d="M2097 343 c-8 -8 12 -33 26 -33 6 0 2 7 -9 16 -17 14 -17 15 -1 10
11 -3 16 -2 12 4 -7 12 -19 13 -28 3z"/>
<path d="M1599 327 c-9 -7 -14 -17 -12 -22 2 -6 -4 -20 -12 -30 -12 -17 -14
-17 -9 -2 8 21 -9 22 -26 2 -12 -14 -15 -14 -30 0 -15 14 -18 14 -30 0 -9 -11
-16 -12 -25 -5 -10 8 -15 8 -21 -1 -4 -8 -3 -9 4 -5 7 4 20 -6 31 -25 18 -29
20 -29 26 -11 4 13 12 19 21 15 7 -3 14 0 14 7 0 6 5 8 10 5 6 -4 8 -10 6 -14
-3 -4 -1 -13 5 -21 6 -11 9 -11 9 -2 0 9 5 10 18 4 9 -5 23 -7 30 -5 7 3 10
-1 6 -10 -3 -8 -1 -17 4 -21 5 -3 8 5 7 17 -1 12 -8 23 -16 23 -8 1 -20 2 -28
3 -25 2 -2 15 32 18 20 1 36 -4 45 -14 7 -11 12 -12 12 -4 0 7 5 9 10 6 6 -3
10 -1 10 4 0 6 10 10 23 8 16 -1 22 3 23 18 1 31 -15 55 -31 49 -8 -4 -12 -11
-8 -18 14 -22 11 -34 -13 -45 -19 -9 -25 -7 -33 8 -7 12 -6 22 2 31 9 10 9 11
-1 5 -14 -7 -44 24 -36 37 7 11 2 9 -17 -5z m32 -48 c10 -19 9 -20 -13 -8 -21
11 -22 11 -10 -4 11 -13 10 -15 -5 -12 -10 1 -27 -5 -38 -14 -11 -9 -17 -12
-13 -7 4 5 3 15 -3 22 -7 8 -6 14 2 20 7 4 9 3 5 -4 -3 -6 -2 -13 2 -16 12 -7
52 40 44 50 -4 4 -1 4 5 0 7 -4 18 -16 24 -27z m96 -9 c1 -11 -2 -20 -7 -20
-6 0 -7 17 -1 38 3 8 7 -1 8 -18z m-216 -7 c10 -12 10 -14 1 -9 -7 4 -15 1
-18 -9 -5 -13 -9 -14 -15 -4 -4 7 -3 19 3 26 13 16 13 16 29 -4z"/>
<path d="M1520 309 c0 -5 5 -7 10 -4 6 3 10 8 10 11 0 2 -4 4 -10 4 -5 0 -10
-5 -10 -11z"/>
<path d="M2077 296 c-4 -9 -15 -13 -27 -11 -11 2 -20 0 -20 -6 0 -5 9 -7 20
-6 23 4 47 24 38 32 -3 3 -8 -1 -11 -9z"/>
<path d="M625 280 c-3 -6 1 -7 9 -4 18 7 21 14 7 14 -6 0 -13 -4 -16 -10z"/>
<path d="M674 275 c3 -23 12 -26 13 -5 1 11 -2 20 -7 20 -4 0 -7 -7 -6 -15z"/>
<path d="M1875 260 c3 -6 2 -10 -3 -10 -6 0 -13 -8 -16 -17 -6 -14 -4 -14 16
2 13 11 24 20 26 21 2 1 -4 4 -13 8 -9 3 -13 2 -10 -4z"/>
<path d="M1820 251 c0 -6 4 -13 10 -16 6 -3 7 1 4 9 -7 18 -14 21 -14 7z"/>
<path d="M1953 245 c0 -8 4 -15 9 -15 4 0 8 4 8 9 0 6 -4 12 -8 15 -5 3 -9 -1
-9 -9z"/>
<path d="M750 246 c0 -2 7 -7 16 -10 8 -3 12 -2 9 4 -6 10 -25 14 -25 6z"/>
<path d="M1770 240 c0 -5 5 -10 10 -10 6 0 10 5 10 10 0 6 -4 10 -10 10 -5 0
-10 -4 -10 -10z"/>
<path d="M896 222 c-2 -4 -1 -14 4 -22 7 -11 9 -9 7 8 -1 24 -3 26 -11 14z"/>
<path d="M920 226 c0 -2 7 -7 16 -10 8 -3 12 -2 9 4 -6 10 -25 14 -25 6z"/>
<path d="M1510 226 c0 -2 7 -7 16 -10 8 -3 12 -2 9 4 -6 10 -25 14 -25 6z"/>
<path d="M1696 222 c-2 -4 -1 -14 4 -22 7 -11 9 -9 7 8 -1 24 -3 26 -11 14z"/>
<path d="M1795 220 c-3 -5 -1 -10 4 -10 6 0 11 5 11 10 0 6 -2 10 -4 10 -3 0
-8 -4 -11 -10z"/>
<path d="M1161 200 c-13 -11 -18 -20 -13 -20 6 0 14 5 17 10 4 6 11 7 17 4 7
-5 8 -2 3 6 -6 10 -4 12 8 7 10 -3 17 -2 17 3 0 16 -23 11 -49 -10z"/>
<path d="M1460 215 c0 -5 5 -17 10 -25 5 -8 10 -10 10 -5 0 6 -5 17 -10 25 -5
8 -10 11 -10 5z"/>
<path d="M977 195 c-4 -8 -3 -16 1 -19 4 -3 9 4 9 15 2 23 -3 25 -10 4z"/>
<path d="M1499 208 c-6 -21 -5 -37 2 -32 5 3 6 10 3 16 -5 8 -1 9 10 5 10 -4
15 -3 11 3 -5 9 -24 14 -26 8z"/>
<path d="M1035 191 c-3 -5 -2 -12 3 -15 5 -3 9 1 9 9 0 17 -3 19 -12 6z"/>
<path d="M1353 185 c0 -8 4 -12 9 -9 5 3 6 10 3 15 -9 13 -12 11 -12 -6z"/>
<path d="M1553 185 c0 -8 4 -12 9 -9 5 3 6 10 3 15 -9 13 -12 11 -12 -6z"/>
<path d="M920 160 c8 -5 20 -10 25 -10 6 0 3 5 -5 10 -8 5 -19 10 -25 10 -5 0
-3 -5 5 -10z"/>
</g>
</svg>
